<!DOCTYPE svg PUBLIC "-//W3C//DTD SVG 1.1//EN" "http://www.w3.org/Graphics/SVG/1.1/DTD/svg11.dtd">
<!-- Uploaded to: SVG Repo, www.svgrepo.com, Transformed by: SVG Repo Mixer Tools -->
<svg fill="" width="800px" height="800px" viewBox="0 0 16 16" xmlns="http://www.w3.org/2000/svg" stroke="">
<g id="SVGRepo_bgCarrier" stroke-width="0"/>
<g id="SVGRepo_tracerCarrier" stroke-linecap="round" stroke-linejoin="round"/>
<g id="SVGRepo_iconCarrier"> <path d="M7.5 0v2h1V0zM4.434.822l-.868.5 1.002 1.733.866-.5zm7.132 0l-1 1.733.868.5 1-1.733zM8 3a5 5 0 1 0 0 10A5 5 0 0 0 8 3zm-6.678.566l-.5.868 1.733 1 .5-.868zm13.356 0l-1.733 1 .5.868 1.733-1zM8 4a4 4 0 0 1 4 4 4 4 0 0 1-4 4 4 4 0 0 1-4-4 4 4 0 0 1 4-4zM0 7.5v1h2v-1zm14 0v1h2v-1zM2.555 10.566l-1.733 1 .5.868 1.733-1.002zm10.89 0l-.5.868 1.733 1 .5-.868zm-8.879 2.38l-1 1.732.868.5 1-1.733zm6.868 0l-.868.5 1 1.732.868-.5zM7.5 14v2h1v-2z" fill="gray"/> </g>
</svg>